<svg enable-background="new 0 0 270 50" viewBox="0 0 270 50" xmlns="http://www.w3.org/2000/svg"><g fill="#020203"><path d="m57.76 8.3h5.96l6.88 20.96h.16l6.88-20.96h5.96v27.98h-3.72v-23.66l-.16-.02-7.32 21.28h-3.43l-7.32-21.28-.16.02v23.66h-3.72z"/><path d="m110.01 16.3v19.98h-3.69v-4.1l-.07-.01c-1.4 2.78-4.25 4.52-7.71 4.52-5.68 0-10-4.43-10-10.39 0-5.94 4.29-10.4 10-10.4 3.45 0 6.3 1.73 7.71 4.52l.07-.01v-4.1h3.69zm-3.49 9.99c0-4.1-2.99-7.11-7.1-7.11-4.07 0-7.08 3.02-7.08 7.11 0 4.11 3.02 7.11 7.09 7.11 4.11-.01 7.09-3.03 7.09-7.11z"/><path d="m115.71 7.5h3.68v17.95l.06.02 8.04-9.17h4.58l-8.95 9.9 9.35 10.08h-4.71l-8.31-9.28-.06.02v9.26h-3.68z"/><path d="m155.98 28.06c-.25 5.09-4.49 8.62-10.12 8.62-6.25 0-10.72-4.43-10.72-10.5 0-6.02 4.41-10.28 10.53-10.28 6.04 0 10.06 3.96 9.94 10h-16.85v.14c0 4.47 2.83 7.4 7 7.4 3.63 0 6.3-2.24 6.42-5.37zm-10.32-9.22c-3.22 0-5.45 1.62-6.39 4.2h12.43c-.77-2.69-2.93-4.2-6.04-4.2z"/><path d="m182.68 15.9c4.22 0 6.93 3 6.93 7.78v12.6h-3.71v-12.01c0-3.18-1.63-5.08-4.32-5.08-2.93 0-4.8 2.23-4.8 5.83v11.26h-3.71v-12.01c0-3.18-1.64-5.08-4.31-5.08-2.93 0-4.81 2.27-4.81 5.98v11.11h-3.68v-19.98h3.68v3.66h.01c1.15-2.57 3.35-4.06 6.19-4.06 2.89 0 5.04 1.55 6.02 4.16 1.21-2.61 3.48-4.16 6.51-4.16z"/><path d="m214.77 16.3v20.91c0 6.05-4.2 9.86-10.68 9.86-6.6 0-10.83-3.95-10.79-9.86h3.63c-.13 4.05 2.64 6.66 7.11 6.66 4.42 0 7.1-2.57 7.1-6.66v-5.31l-.04-.01c-1.14 2.74-3.68 4.32-7.19 4.32-4.86 0-7.79-3.04-7.79-8.21v-11.7h3.74v11.07c0 3.52 1.98 5.56 5.24 5.56 3.64 0 5.97-2.53 5.97-6.6v-10.03z"/><path d="m230.01 36.68c-6.55 0-11.04-4.32-11.04-10.4 0-6.12 4.54-10.38 11-10.38 5.18 0 9.04 2.72 10.19 6.95h-5.34c-.88-1.63-2.67-2.7-4.86-2.7-3.42 0-5.87 2.52-5.87 6.14 0 3.56 2.39 6.14 5.94 6.14 3.56 0 5.94-2.65 5.58-6.37h5.21c.37 6.32-4.23 10.62-10.81 10.62z"/><path d="m243.63 16.3h5.37l5.25 15.19h.16l5.25-15.19h5.34l-7.99 19.98h-5.39z"/><path d="m41.86 3.92-19.19-2.57c-3.79-.51-7.3 2.18-7.81 5.97l-.32 2.36h16.76c3.82 0 6.95 3.13 6.95 6.95v19.35c0 .32-.03.64-.07.95 3.5.09 6.6-2.48 7.08-6.02l2.57-19.18c.5-3.79-2.19-7.3-5.97-7.81z"/><path d="m37.45 36.88-19.18-2.57c-3.79-.51-6.47-4.02-5.97-7.81l2.25-16.82h-2.6c-3.82 0-6.95 3.13-6.95 6.95v19.35c0 3.82 3.13 6.95 6.95 6.95h19.35c3.5 0 6.41-2.62 6.88-6-.24 0-.49-.02-.73-.05z"/></g></svg>